<?xml version="1.0" standalone="no"?>
<!DOCTYPE svg PUBLIC "-//W3C//DTD SVG 20010904//EN"
 "http://www.w3.org/TR/2001/REC-SVG-20010904/DTD/svg10.dtd">
<svg version="1.0" xmlns="http://www.w3.org/2000/svg"
 width="1100.000000pt" height="1100.000000pt" viewBox="0 0 1100.000000 1100.000000"
 preserveAspectRatio="xMidYMid meet">
<metadata>
Created by potrace 1.14, written by Peter Selinger 2001-2017
</metadata>
<g transform="translate(0.000000,1100.000000) scale(0.100000,-0.100000)"
fill="#000000" stroke="none">
<path d="M4879 10996 c-3 -3 -14 -7 -25 -9 -107 -21 -248 -70 -362 -128 -64
-32 -118 -62 -121 -66 -3 -5 -28 -24 -56 -43 -27 -19 -63 -46 -80 -60 -67 -56
-255 -253 -255 -266 0 -3 -6 -12 -12 -19 -25 -28 -35 -41 -85 -115 -58 -87
-102 -155 -119 -187 -30 -55 -49 -88 -54 -93 -12 -12 -143 -287 -190 -400 -29
-69 -56 -134 -61 -145 -15 -36 -74 -190 -78 -207 -1 -4 -14 -36 -27 -70 -14
-35 -28 -74 -30 -87 -3 -13 -12 -37 -20 -52 -8 -16 -12 -29 -8 -29 4 0 1 -7
-6 -15 -7 -8 -9 -15 -5 -15 4 0 3 -6 -3 -12 -5 -7 -13 -29 -18 -48 -10 -42 -9
-41 -17 -60 -14 -36 -74 -249 -78 -275 0 -5 -5 -18 -11 -28 -5 -10 -11 -27
-13 -37 -2 -10 -13 -52 -24 -92 -11 -40 -22 -82 -24 -93 -2 -11 -7 -27 -10
-35 -5 -12 -26 -92 -43 -160 -2 -8 -17 -67 -34 -130 -18 -63 -33 -123 -35
-132 -2 -9 -9 -26 -15 -37 -6 -12 -9 -21 -6 -21 5 0 -27 -99 -43 -135 -5 -11
-24 -56 -41 -100 -32 -79 -159 -345 -169 -355 -4 -3 -18 -30 -34 -60 -40 -81
-71 -135 -79 -138 -5 -2 -8 -10 -8 -18 0 -8 -5 -20 -11 -27 -5 -7 -37 -55 -69
-107 -113 -182 -140 -226 -219 -345 -88 -132 -231 -362 -231 -371 0 -3 -8 -18
-19 -32 -45 -65 -222 -408 -214 -416 4 -3 1 -6 -5 -6 -7 0 -12 -4 -12 -9 0 -5
-13 -38 -29 -73 -50 -108 -64 -143 -63 -150 1 -5 -3 -8 -10 -8 -6 0 -9 -3 -6
-6 4 -3 -5 -31 -19 -62 -14 -31 -41 -100 -60 -152 -19 -52 -41 -108 -48 -125
-11 -26 -27 -70 -30 -85 -1 -3 -25 -77 -53 -165 -29 -88 -54 -169 -57 -180 -3
-11 -23 -83 -45 -160 -21 -77 -41 -151 -44 -165 -3 -14 -14 -63 -25 -110 -28
-119 -54 -256 -65 -345 -20 -153 -20 -154 -33 -325 -16 -212 -8 -769 13 -935
3 -22 6 -58 9 -80 2 -22 4 -40 5 -40 1 0 4 -13 6 -30 10 -65 27 -144 50 -230
14 -49 26 -97 28 -105 22 -88 165 -402 197 -430 3 -3 16 -23 29 -45 73 -121
211 -294 252 -316 27 -15 35 -3 42 61 3 30 8 65 10 77 3 13 8 71 11 130 3 60
8 131 10 158 7 87 16 198 19 245 2 25 7 77 12 115 4 39 8 88 10 110 1 22 3 40
4 40 1 0 3 16 5 35 1 19 6 58 10 85 3 28 9 66 11 85 3 19 7 49 9 65 3 29 12
85 21 135 2 14 7 48 10 75 4 28 8 53 11 57 2 4 6 22 8 40 6 38 13 73 15 73 1
0 3 13 5 30 2 16 10 52 17 80 7 27 13 52 13 55 8 39 19 83 31 117 7 23 15 52
18 65 12 64 63 199 122 327 93 199 228 327 342 324 42 -2 86 -21 282 -124 76
-40 228 -105 255 -109 3 0 24 -8 47 -16 44 -15 157 -44 193 -49 106 -14 138
-17 192 -17 33 0 85 5 115 11 29 6 64 13 78 15 23 4 127 38 160 53 8 3 17 7
20 8 48 15 169 90 198 123 12 14 22 38 22 54 0 36 -33 116 -76 185 -18 28 -42
69 -52 90 -31 60 -98 264 -117 353 -1 8 -8 35 -15 59 -6 23 -9 46 -6 49 3 3 1
11 -5 19 -6 7 -9 13 -6 13 3 0 0 19 -5 43 -5 23 -11 51 -13 62 -15 83 -25 146
-30 180 -2 22 -7 49 -9 61 -2 11 -7 47 -10 80 -4 32 -9 66 -11 74 -2 8 -7 44
-10 80 -4 36 -8 83 -11 105 -9 81 -13 122 -18 185 -3 36 -8 88 -11 115 -6 66
-16 188 -20 250 -5 79 -16 281 -21 390 -8 145 -8 1150 -1 1285 15 287 20 349
32 470 3 25 7 72 10 105 3 33 8 71 10 85 2 14 7 52 11 85 3 33 8 69 10 80 2
10 6 37 10 60 3 22 8 49 9 60 2 11 6 35 9 53 3 19 15 77 27 130 12 53 25 115
30 137 4 22 13 55 18 73 5 17 7 32 4 32 -3 0 0 7 7 15 7 8 10 15 7 15 -4 0 0
19 9 41 8 23 16 52 18 63 5 30 45 167 55 191 5 11 28 74 51 140 24 66 54 145
68 175 14 30 27 57 27 60 2 7 64 130 78 155 31 53 71 121 79 130 4 5 34 46 67
91 72 97 214 235 302 292 35 23 69 45 74 49 27 21 227 113 244 113 6 0 19 4
29 9 18 10 91 29 152 39 32 6 175 6 476 2 67 -1 130 2 139 7 16 9 14 15 -20
52 -20 22 -41 38 -46 35 -5 -3 -9 -1 -9 5 0 22 -294 187 -469 263 -144 63
-302 104 -322 84z"/>
<path d="M4885 10357 c-29 -9 -116 -67 -102 -67 4 0 -1 -9 -10 -19 -55 -61
-81 -116 -76 -161 9 -73 95 -186 161 -211 79 -31 165 -7 212 57 14 20 30 41
35 47 44 51 59 151 31 206 -25 47 -92 112 -136 132 -22 10 -40 16 -40 14 0 -3
-10 -1 -22 4 -13 5 -36 4 -53 -2z m112 -155 c0 -9 -5 -20 -11 -24 -16 -11 -54
-10 -61 3 -11 17 4 57 23 62 21 4 49 -18 49 -41z"/>
<path d="M6275 10282 c-1 -2 -28 -5 -58 -7 -77 -5 -104 -22 -161 -106 -34 -49
-79 -96 -136 -142 -171 -137 -283 -255 -330 -347 -26 -49 -35 -140 -20 -205
12 -52 68 -108 120 -117 3 -1 21 -5 40 -11 59 -15 201 -17 276 -2 39 7 115 30
170 50 120 45 348 147 352 157 2 5 9 8 16 8 16 0 228 108 346 177 140 82 240
163 316 256 13 15 28 70 29 102 1 38 -49 115 -74 115 -6 0 -11 4 -11 9 0 21
-114 50 -222 56 -46 2 -85 5 -88 6 -9 3 -562 4 -565 1z"/>
<path d="M5724 8355 c0 -19 3 -35 6 -35 3 0 6 -12 7 -27 1 -32 7 -62 29 -152
9 -36 17 -72 19 -80 2 -9 15 -61 30 -116 45 -171 45 -172 52 -210 3 -16 9 -38
14 -47 5 -10 8 -18 5 -18 -3 0 0 -15 5 -32 5 -18 12 -49 15 -68 3 -19 9 -46
14 -60 8 -23 19 -78 26 -125 2 -11 5 -27 7 -35 4 -17 15 -72 21 -110 2 -14 7
-36 10 -50 3 -14 8 -40 11 -57 3 -18 7 -46 10 -63 19 -117 31 -189 40 -260 3
-25 8 -61 12 -80 3 -19 7 -46 8 -60 3 -34 15 -138 20 -175 4 -28 12 -100 20
-190 5 -43 11 -127 20 -245 3 -41 7 -102 10 -135 9 -103 23 -503 26 -710 0
-39 -12 -554 -15 -610 -4 -81 -16 -272 -21 -330 -14 -151 -17 -184 -20 -215
-1 -19 -6 -66 -9 -105 -4 -38 -9 -82 -11 -97 -10 -61 -14 -86 -20 -143 -3 -33
-8 -73 -11 -89 -4 -16 -8 -45 -9 -65 -2 -20 -4 -36 -5 -36 -2 0 -6 -22 -16
-85 -4 -25 -8 -52 -10 -60 -1 -8 -5 -33 -8 -55 -6 -38 -41 -217 -51 -260 -3
-11 -9 -42 -15 -68 -5 -27 -12 -52 -14 -56 -3 -4 -8 -23 -11 -42 -4 -19 -8
-38 -9 -44 -14 -55 -22 -82 -44 -155 -14 -47 -27 -90 -28 -95 -9 -48 -152
-456 -189 -540 -7 -16 -37 -86 -66 -155 -98 -233 -246 -514 -346 -658 -87
-125 -98 -140 -176 -226 -53 -59 -100 -135 -93 -151 5 -15 9 -15 38 2 129 73
409 369 676 715 29 37 52 72 52 78 0 5 4 10 8 10 5 0 14 11 20 25 7 14 17 31
23 38 13 15 49 77 81 137 13 25 25 47 28 50 3 3 16 28 30 55 14 28 29 53 33
56 5 3 9 10 9 15 0 5 27 65 59 132 33 68 61 129 62 135 1 7 4 14 8 17 3 3 15
30 28 60 13 30 29 69 36 85 56 126 173 447 190 521 2 10 16 62 29 114 21 78
45 185 71 313 2 10 6 26 9 35 3 9 7 37 10 62 3 25 8 56 11 70 5 25 15 91 20
140 2 14 4 25 5 25 1 0 4 14 5 30 10 94 13 114 19 124 4 6 2 11 -4 11 -6 0 -8
5 -4 11 9 15 16 93 30 324 12 199 6 583 -12 845 -3 47 -7 108 -9 135 -2 28 -4
50 -5 50 -1 0 -3 16 -5 35 -13 145 -20 210 -31 270 -2 14 -6 48 -9 75 -3 28
-8 61 -12 75 -3 14 -7 43 -9 65 -2 22 -6 51 -9 65 -8 33 -11 51 -25 140 -7 41
-14 84 -17 95 -2 11 -6 34 -9 50 -3 17 -12 64 -20 105 -9 41 -18 86 -20 99 -3
12 -11 51 -19 85 -8 33 -16 72 -18 86 -3 14 -12 52 -20 85 -9 33 -18 71 -21
85 -5 29 -25 107 -61 245 -14 55 -27 107 -29 115 -2 8 -6 22 -9 30 -3 8 -12
42 -21 75 -32 127 -51 190 -59 193 -4 2 -5 7 -2 12 2 4 -2 27 -9 51 -34 106
-128 416 -132 433 -2 10 -8 24 -15 32 -6 8 -9 14 -6 14 3 0 -8 37 -24 83 -16
45 -29 82 -29 82 1 0 -3 13 -9 28 -6 16 -11 31 -11 34 0 3 -10 27 -21 52 -51
110 -100 201 -109 201 -4 0 -7 -16 -6 -35z"/>
<path d="M8057 1024 c-2 -3 -65 -7 -138 -9 -73 -3 -167 -7 -208 -10 -42 -3
-101 -8 -131 -10 -79 -5 -178 -14 -230 -19 -25 -3 -74 -8 -110 -11 -123 -12
-155 -15 -200 -20 -25 -3 -67 -8 -95 -11 -27 -3 -66 -7 -85 -10 -19 -2 -55 -6
-80 -9 -25 -3 -58 -7 -75 -9 -16 -3 -52 -8 -80 -11 -27 -4 -61 -9 -75 -11 -31
-5 -97 -15 -130 -19 -43 -5 -104 -15 -125 -19 -11 -2 -40 -7 -65 -11 -25 -4
-54 -9 -65 -11 -11 -3 -35 -7 -54 -10 -18 -3 -43 -8 -55 -10 -11 -2 -37 -7
-56 -10 -19 -3 -66 -12 -105 -20 -38 -8 -85 -17 -104 -20 -19 -3 -64 -12 -100
-20 -36 -8 -79 -17 -96 -20 -16 -3 -70 -14 -120 -25 -49 -11 -99 -22 -110 -24
-11 -3 -94 -23 -185 -46 -91 -22 -170 -42 -177 -43 -7 -1 -16 -5 -19 -9 -4 -4
-14 -7 -21 -7 -19 0 -100 -38 -108 -50 -23 -37 156 -214 380 -373 44 -31 85
-60 90 -64 62 -46 149 -60 180 -30 15 16 29 21 48 18 4 0 7 3 7 9 0 5 4 10 9
10 5 0 26 8 47 17 22 9 46 18 54 19 13 3 44 16 82 35 10 5 26 9 36 9 10 0 22
3 26 8 4 4 11 7 14 8 4 0 14 4 22 7 29 12 285 98 305 102 11 3 31 9 45 15 43
16 462 137 510 146 14 3 39 9 55 14 29 9 49 14 110 26 17 3 37 8 45 11 8 3 24
7 35 9 21 3 54 9 95 19 14 3 36 8 50 10 14 2 90 18 170 34 80 16 163 32 185
35 44 7 78 13 115 21 14 3 52 10 85 15 33 5 71 12 85 15 14 3 43 7 65 10 22 2
49 6 60 9 38 7 110 19 135 21 14 1 39 5 55 9 17 3 48 8 70 11 22 2 49 6 60 9
11 2 45 7 75 10 30 4 66 8 80 11 23 4 63 9 160 20 46 5 131 17 150 20 8 1 46
6 83 10 37 3 77 8 88 10 11 2 50 7 87 10 66 6 98 9 197 21 28 3 68 7 90 8 22
2 81 7 130 11 50 5 108 9 130 11 22 1 40 3 40 4 0 1 20 3 45 5 40 3 91 10 155
20 11 1 40 8 65 15 39 11 42 13 25 23 -11 6 -24 12 -30 13 -112 20 -205 29
-370 39 -49 3 -112 8 -140 10 -193 19 -1132 38 -1142 22 -2 -4 -12 -3 -22 3
-10 5 -21 7 -24 4z"/>
</g>
</svg>
