<svg width="136" height="56" viewBox="0 0 136 56" fill="none" xmlns="http://www.w3.org/2000/svg">
<path fill-rule="evenodd" clip-rule="evenodd" d="M41.8257 0.279974C39.095 1.14206 37.0621 3.70465 35.221 8.606C34.5189 10.4755 34.1277 11.7842 33.0441 15.891C32.6109 17.5325 31.3413 20.0017 29.598 22.5928C27.4408 25.7994 26.0364 28.8866 24.9425 32.8267C24.2306 35.3915 24.0006 37.1332 24 39.9682C23.9994 42.6434 24.3493 44.5872 25.132 46.2583C25.6956 47.462 27.019 49.2522 27.2064 49.0649C27.2655 49.0058 27.3478 48.381 27.3892 47.6766C27.7885 40.8856 28.8877 36.7633 30.5149 35.9541C30.9542 35.7355 31.1485 35.778 32.0453 36.2879C33.5529 37.1455 35.2637 37.5893 36.403 37.4185C37.5012 37.2538 38.7869 36.6482 38.952 36.2181C39.015 36.0538 38.8006 35.5176 38.4753 35.0267C36.6856 32.3247 35.9529 17.9471 37.287 11.7081C38.4314 6.35539 40.0895 3.69221 42.9525 2.60853C43.8804 2.25716 44.383 2.19676 45.6722 2.28144C46.5418 2.33878 47.2535 2.31491 47.2535 2.22839C47.2535 1.77949 43.7562 -0.0389481 42.9686 0.000636458C42.8002 0.00900228 42.286 0.134694 41.8257 0.279974ZM42.3171 3.59733C41.7782 4.22497 41.72 4.44574 41.9694 4.91933C42.455 5.8412 43.3512 5.9673 43.8633 5.18581C44.2983 4.52185 44.2789 4.14253 43.7847 3.64834C43.2818 3.14537 42.7219 3.12578 42.3171 3.59733ZM43.3767 4.05642C43.3767 4.16865 43.2848 4.26047 43.1726 4.26047C43.0604 4.26047 42.9686 4.16865 42.9686 4.05642C42.9686 3.9442 43.0604 3.85238 43.1726 3.85238C43.2848 3.85238 43.3767 3.9442 43.3767 4.05642ZM47.1186 13.7485C47.1662 14.0852 47.3949 15.0683 47.6269 15.9332C49.5776 23.2088 49.8414 32.8091 48.296 40.2941C47.472 44.2854 45.4806 48.907 43.7933 50.7442C43.452 51.1158 43.1726 51.5082 43.1726 51.6161C43.1726 52.179 45.4724 49.8674 47.0235 47.7454C48.0317 46.366 49.6025 42.9891 50.2009 40.914C52.213 33.9379 51.5048 25.8302 47.9464 15.1036C47.7842 14.6145 47.512 13.9718 47.3417 13.6753L47.0319 13.1364L47.1186 13.7485ZM72.3165 37.0157C70.7298 37.8774 71.4058 40.5804 73.2079 40.5804C74.3328 40.5804 75.0045 39.8764 75.0005 38.7021C74.9968 37.7174 74.9099 37.5395 74.1929 37.0488C73.583 36.6313 73.0416 36.6217 72.3165 37.0157ZM82.0673 41.1994C81.7441 41.2963 81.274 41.5687 81.0228 41.8046L80.5658 42.2339L80.4536 41.8046C80.3532 41.4204 80.216 41.3816 79.1517 41.4369L77.9622 41.4986L77.9081 47.5689L77.854 53.6392H79.2854H80.7168V49.5018C80.7168 45.95 80.7657 45.2928 81.062 44.8598C81.252 44.5823 81.5044 44.2876 81.6231 44.2052C82.0424 43.9142 83.1169 44.0542 83.6438 44.4688L84.1776 44.8886L84.2325 49.2129L84.2875 53.5372H85.7159H87.1442L87.1995 49.1518C87.2609 44.2713 87.0964 42.9973 86.2931 42.1311C85.3306 41.0929 83.6562 40.7238 82.0673 41.1994ZM109.577 41.5577L108.136 41.6169L107.565 42.7797L106.995 43.9426L106.472 42.7716L105.949 41.6006H104.351C103.348 41.6006 102.754 41.6822 102.754 41.8199C102.754 41.9405 103.351 43.177 104.08 44.5676L105.407 47.0959L105.027 47.7723C104.818 48.1443 104.26 49.1672 103.786 50.0454C103.313 50.9236 102.749 51.9307 102.534 52.2835C101.837 53.4274 101.963 53.5916 103.556 53.6159C105.241 53.6416 105.382 53.5368 106.341 51.5359L107.014 50.1315L107.731 51.5551C108.741 53.5612 108.827 53.6237 110.526 53.597L111.964 53.5743L111.832 53.0456C111.759 52.7549 111.569 52.3721 111.41 52.1948C111.25 52.0176 111.119 51.8265 111.119 51.7699C111.119 51.7134 110.561 50.6281 109.879 49.3581L108.639 47.049L109.149 46.1102C110.93 42.8287 111.405 41.8077 111.219 41.6598C111.108 41.5712 110.369 41.5253 109.577 41.5577ZM71.7868 47.4579L71.8408 53.3331H73.2692H74.6975V47.5179V41.7026L73.2151 41.6426L71.7325 41.5826L71.7868 47.4579ZM90.3475 46.0294C90.4272 51.1378 90.5923 51.8238 91.9847 52.8326C93.7323 54.0985 96.8828 54.1191 98.4448 52.8746C99.8735 51.7365 99.9912 51.2458 100.061 46.1406L100.123 41.6006H98.6835H97.2444V45.6886C97.2444 50.2576 97.164 50.5755 95.9013 50.9921C95.0209 51.2827 93.9399 50.9658 93.6026 50.3182C93.4522 50.0292 93.3479 48.3812 93.3159 45.7835L93.2655 41.7026L91.7719 41.6424L90.2781 41.5822L90.3475 46.0294ZM58.2719 50.9313C55.6818 51.0393 51.9073 51.4524 49.3133 51.9118C45.9843 52.5014 42.9427 53.2146 42.6635 53.4711C42.4507 53.6665 43.4342 54.6272 44.8546 55.6111C45.3918 55.9833 45.6944 56.0798 45.8748 55.9371C46.3235 55.5819 50.2995 54.256 52.4358 53.7492C56.2415 52.8463 61.3883 52.0707 66.0766 51.694C67.0587 51.6151 67.862 51.4792 67.862 51.3918C67.862 51.0913 61.6221 50.7918 58.2719 50.9313Z" fill="white"/>
<path fill-rule="evenodd" clip-rule="evenodd" d="M48.863 4.10754C48.7304 4.36014 48.4347 4.70437 48.206 4.8727C47.0001 5.7607 46.2335 6.68461 46.2363 7.24614C46.241 8.10129 46.4847 8.35921 47.4043 8.48265C48.4055 8.61691 49.2315 8.36003 51.7247 7.13943C54.5532 5.75438 55.4151 4.71233 54.3495 3.96614C54.0017 3.7223 53.3385 3.64844 51.5003 3.64844C49.2229 3.64844 49.0923 3.67129 48.863 4.10754ZM90.9655 30.7396C90.767 30.8761 90.719 31.8729 90.7615 34.9839L90.817 39.0501H91.3271C91.8102 39.0501 91.8404 38.983 91.898 37.7748C91.9547 36.5836 91.9908 36.4996 92.4458 36.4996C93.7636 36.4996 94.8395 35.6589 95.2084 34.3408C95.4259 33.564 95.4124 33.3053 95.1131 32.5215C94.6518 31.3138 93.8593 30.7702 92.3895 30.6535C91.749 30.6027 91.1083 30.6415 90.9655 30.7396ZM93.0166 31.7894C93.8662 32.1126 94.1837 32.5907 94.1837 33.5475C94.1837 34.2061 94.0655 34.5534 93.737 34.8593C93.4916 35.088 93.239 35.2829 93.1759 35.2918C91.9402 35.4708 91.9725 35.5095 91.8984 33.7511C91.8109 31.6768 91.9729 31.3927 93.0166 31.7894ZM105.549 31.7315C105.471 31.8102 105.406 32.2724 105.406 32.7588C105.406 33.4903 105.339 33.643 105.02 33.643C104.608 33.643 104.389 33.989 104.535 34.4081C104.584 34.5485 104.8 34.6632 105.015 34.6632C105.377 34.6632 105.406 34.8319 105.406 36.9219C105.406 39.1475 105.413 39.1795 105.865 39.1154C106.303 39.0532 106.327 38.9526 106.383 36.9377C106.435 35.0362 106.481 34.8148 106.842 34.7203C107.364 34.5838 107.367 33.8413 106.845 33.7048C106.535 33.6238 106.433 33.3912 106.386 32.6546C106.343 31.9957 106.228 31.69 106.008 31.6482C105.834 31.6154 105.628 31.6527 105.549 31.7315ZM96.5622 34.0502C95.0366 35.3898 95.3061 37.8434 97.1023 38.9677C97.8428 39.4309 98.9022 39.377 99.4888 38.8461C99.8096 38.5559 99.859 38.5549 99.9673 38.8373C100.034 39.0105 100.275 39.1521 100.503 39.1521C100.898 39.1521 100.917 39.0297 100.917 36.4932C100.917 34.3079 100.862 33.8131 100.608 33.7158C100.439 33.6505 100.175 33.7005 100.023 33.8266C99.8145 34 99.6845 33.9806 99.4909 33.7474C99.3268 33.5499 98.8798 33.4389 98.2466 33.4389C97.44 33.4389 97.1307 33.5511 96.5622 34.0502ZM101.822 33.9098C101.766 34.0568 101.746 35.2733 101.778 36.6134C101.833 38.9648 101.851 39.0524 102.294 39.1154C102.74 39.1787 102.754 39.1293 102.754 37.4119C102.754 35.6999 102.774 35.6242 103.381 35.0568C103.839 34.6295 103.973 34.3581 103.878 34.0568C103.727 33.5832 103.551 33.5391 103.202 33.8878C103.012 34.0782 102.903 34.0782 102.713 33.8878C102.39 33.5652 101.95 33.576 101.822 33.9098ZM107.651 33.9388C107.651 34.1014 108.014 35.0715 108.457 36.0943C109.343 38.136 109.35 37.7669 108.382 39.9991C107.957 40.9796 107.967 41.0267 108.591 40.951C109.065 40.8937 109.245 40.5956 110.237 38.2339C112.209 33.5399 112.229 33.4575 111.36 33.7335C111.116 33.8107 110.777 34.3039 110.503 34.9799C110.253 35.595 109.969 36.1476 109.872 36.2078C109.775 36.2678 109.461 35.7873 109.175 35.1398C108.889 34.4926 108.543 33.8923 108.407 33.806C108.013 33.555 107.651 33.6185 107.651 33.9388ZM99.3005 34.8515C100.525 36.0756 99.8263 38.1319 98.1866 38.1319C96.8467 38.1319 96.1735 36.4206 96.9779 35.059C97.5474 34.0949 98.4623 34.0133 99.3005 34.8515Z" fill="#E58941"/>
</svg>
